<svg width="15" height="14" viewBox="0 0 15 14" fill="none" xmlns="http://www.w3.org/2000/svg">
<path d="M5.36202 11.5948C5.2872 11.5923 5.21369 11.5745 5.14599 11.5426C5.07829 11.5107 5.01783 11.4652 4.9683 11.4091L1.25402 7.69481C1.1832 7.6489 1.12374 7.58749 1.08012 7.51523C1.03651 7.44298 1.00988 7.36175 1.00225 7.2777C0.994621 7.19364 1.00619 7.10895 1.03608 7.03002C1.06597 6.95109 1.1134 6.87998 1.17479 6.82207C1.23618 6.76415 1.30993 6.72094 1.39047 6.69569C1.471 6.67045 1.55622 6.66383 1.63969 6.67634C1.72316 6.68885 1.80269 6.72016 1.87229 6.7679C1.94189 6.81565 1.99973 6.87858 2.04144 6.95195L5.36202 10.2502L13.1397 2.49481C13.2444 2.42692 13.3689 2.39615 13.4932 2.40743C13.6175 2.41872 13.7344 2.4714 13.8251 2.55703C13.9159 2.64267 13.9753 2.7563 13.9938 2.87972C14.0123 3.00313 13.9888 3.12918 13.9272 3.23767L5.75573 11.4091C5.70621 11.4652 5.64574 11.5107 5.57804 11.5426C5.51034 11.5745 5.43683 11.5923 5.36202 11.5948Z" fill="white"/>
</svg>
